<svg xmlns="http://www.w3.org/2000/svg" viewBox="0 0 150 96" width="150" height="96">
  <defs>
    <linearGradient id="gold" x1="0" y1="0" x2="0" y2="1">
      <stop offset="0" stop-color="#f6e3a1"/>
      <stop offset="0.5" stop-color="#d4af37"/>
      <stop offset="1" stop-color="#a87d23"/>
    </linearGradient>
  </defs>
  <!-- stylised World Cup trophy -->
  <g fill="url(#gold)">
    <path d="M64 14c-6 0-9 5-7 12 1.6 5.4 5 9.2 9 11v9h-5c-1 0-1.6.7-1.6 1.6V61h17v-12.4c0-.9-.7-1.6-1.6-1.6h-5v-9c4-1.8 7.4-5.6 9-11 2-7-1-12-7-12z"/>
    <rect x="58" y="63" width="20" height="5" rx="1.4"/>
  </g>
  <!-- year -->
  <text x="98" y="46" text-anchor="middle"
        font-family="Arial, Helvetica, sans-serif" font-weight="800"
        font-size="44" letter-spacing="-2" fill="url(#gold)">26</text>
  <text x="75" y="84" text-anchor="middle"
        font-family="Arial, Helvetica, sans-serif" font-weight="600"
        font-size="11" letter-spacing="4" fill="#ffffff">WORLD CUP</text>
</svg>
